<?xml version="1.0" ?><svg width="2050px" height="2050px" viewBox="0 0 2050 2050" xmlns="http://www.w3.org/2000/svg"><defs><style>.cls-1{fill:#fff;}.cls-2{fill:#ffc500;}.cls-3{fill:#ff9f1e;}.cls-4{fill:#ffe059;}.cls-5{fill:#00305f;}</style></defs><title/><g data-name="Layer 1" id="Layer_1"><rect class="cls-1" height="2040" width="2040" x="5" y="5"/></g><g data-name="Layer 3" id="Layer_3"><circle class="cls-2" cx="1025" cy="1025" r="613.7"/><path class="cls-3" d="M1068.5,1551.8c-339,0-613.7-274.8-613.7-613.7a613.5,613.5,0,0,1,44.4-229.8A610.7,610.7,0,0,0,411.3,1025c0,338.9,274.8,613.7,613.7,613.7,257.7,0,478.3-158.8,569.2-383.9C1486.8,1432.8,1291.5,1551.8,1068.5,1551.8Z"/><path class="cls-4" d="M1025,411.3A610.4,610.4,0,0,0,659.9,531.7a706.9,706.9,0,0,1,453.2-18.9,27.8,27.8,0,0,0-3.3,5.1c-18.2,33.9,18.9,89.1,82.7,123.3s130.4,34.6,148.6.8a38.6,38.6,0,0,0,3.7-10.5c165.2,128,271.9,328.1,272.9,553.1a613.3,613.3,0,0,0,21-159.6C1638.7,686.1,1363.9,411.3,1025,411.3Z"/><ellipse class="cls-4" cx="1339.4" cy="698.8" rx="30.8" ry="52.8" transform="translate(396.9 1879.5) rotate(-79)"/><ellipse class="cls-4" cx="1235.1" cy="718.7" rx="17.2" ry="25" transform="translate(-4.9 1429) rotate(-60)"/><ellipse class="cls-5" cx="809.8" cy="930.8" rx="109.1" ry="69.2" transform="translate(-155.2 1699.5) rotate(-87.5)"/><circle class="cls-1" cx="848.1" cy="932.4" r="19.1"/><path class="cls-5" d="M1138.7,945.6a30.7,30.7,0,0,1-13.7-3.3,30,30,0,0,1-13-40.4c26.2-51.3,63.4-79.5,104.7-79.5s78.5,28.2,104.7,79.5a30,30,0,0,1-53.4,27.4c-15-29.4-34.2-46.9-51.3-46.9s-36.3,17.5-51.3,46.9A30,30,0,0,1,1138.7,945.6Z"/><path class="cls-5" d="M1034,1283.5c-8.8,0-17.9-.3-27.3-1a426.8,426.8,0,0,1-77.8-12.8,30,30,0,0,1,16.4-57.7h0a378.5,378.5,0,0,0,66.9,10.7c32.1,2.2,77.1.6,108.7-19.5,21.6-13.7,34.4-34.7,39.3-63.9a30,30,0,1,1,59.2,9.7c-7.7,46.5-30,81.8-66.5,104.9C1121.9,1273.6,1082,1283.5,1034,1283.5Z"/></g></svg>