<?xml version="1.0" standalone="no"?>
<!DOCTYPE svg PUBLIC "-//W3C//DTD SVG 20010904//EN"
 "http://www.w3.org/TR/2001/REC-SVG-20010904/DTD/svg10.dtd">
<svg version="1.0" xmlns="http://www.w3.org/2000/svg"
 width="1280.000000pt" height="916.000000pt" viewBox="0 0 1280.000000 916.000000"
 preserveAspectRatio="xMidYMid meet">
<metadata>
Created by potrace 1.15, written by Peter Selinger 2001-2017
</metadata>
<g transform="translate(0.000000,916.000000) scale(0.100000,-0.100000)"
fill="#000000" stroke="none">
<path d="M7495 9145 c-786 -41 -1262 -142 -1451 -308 -60 -53 -69 -77 -89
-228 -41 -319 -146 -555 -331 -749 -194 -203 -486 -345 -834 -405 -204 -35
-639 -64 -739 -48 l-54 8 -13 62 c-21 105 -46 147 -113 197 -114 83 -68 79
-783 73 -639 -5 -806 -13 -1113 -53 -161 -20 -217 -36 -281 -78 -81 -54 -102
-92 -114 -209 -5 -54 -14 -107 -20 -117 -12 -23 -21 -25 -272 -55 -427 -51
-657 -122 -794 -248 -65 -59 -95 -120 -134 -270 -47 -180 -77 -419 -110 -887
-6 -74 -12 -153 -15 -175 -5 -39 -20 -262 -50 -720 -24 -354 -46 -827 -41
-842 5 -11 378 -13 2255 -13 1508 0 2252 3 2256 10 4 6 15 60 25 120 220 1259
1127 2266 2360 2619 271 78 399 97 830 124 61 4 471 -19 510 -29 14 -3 63 -12
110 -20 226 -37 539 -125 685 -194 11 -5 43 -19 70 -31 127 -55 251 -119 381
-196 814 -487 1391 -1321 1549 -2243 9 -52 20 -102 24 -110 7 -13 107 -15 792
-18 430 -1 786 1 790 5 16 17 -25 835 -62 1228 -64 688 -174 1186 -308 1392
-121 186 -480 399 -908 537 -61 19 -210 60 -330 90 -245 61 -339 92 -433 143
-253 139 -421 340 -510 613 -42 129 -60 235 -69 415 -7 132 -12 167 -29 201
-93 182 -505 319 -1142 378 -420 40 -1070 53 -1495 31z m4080 -2459 c124 -62
201 -165 226 -308 22 -125 -28 -267 -127 -358 -70 -63 -118 -87 -212 -106
-192 -37 -382 75 -457 271 -14 36 -20 75 -19 140 0 83 3 96 37 166 77 161 217
243 395 235 72 -3 95 -9 157 -40z"/>
<path d="M7770 6403 c-437 -42 -694 -110 -1024 -268 -742 -355 -1291 -1030
-1486 -1829 -58 -237 -74 -376 -75 -651 0 -350 33 -564 135 -876 224 -683 721
-1260 1375 -1596 240 -123 536 -217 839 -265 189 -30 605 -33 786 -5 701 110
1291 436 1728 957 694 828 845 1960 392 2945 -75 164 -201 369 -329 535 -83
109 -361 387 -471 472 -300 231 -660 409 -1008 497 -268 69 -645 106 -862 84z
m-615 -1372 c176 -46 378 -170 510 -314 65 -71 173 -225 227 -326 40 -73 54
-68 116 42 169 298 413 500 697 577 114 31 313 38 426 16 309 -63 572 -286
709 -604 68 -158 104 -324 116 -529 20 -348 -93 -625 -357 -878 -116 -111
-221 -190 -443 -331 -436 -278 -569 -378 -790 -593 -159 -156 -260 -273 -346
-401 -41 -61 -67 -90 -80 -90 -13 0 -39 31 -82 97 -156 238 -422 501 -703 695
-44 30 -181 117 -305 193 -355 219 -465 300 -613 454 -149 155 -241 316 -289
508 -19 75 -22 114 -22 273 0 198 13 295 60 457 30 104 105 266 163 352 149
219 373 369 624 417 98 19 279 11 382 -15z"/>
<path d="M11211 3303 c-5 -38 -13 -90 -16 -118 -38 -309 -155 -685 -311 -999
-161 -321 -342 -575 -603 -840 -304 -310 -641 -543 -1036 -716 -27 -12 -63
-27 -80 -34 -16 -8 -52 -21 -80 -31 -27 -9 -59 -21 -70 -25 -123 -48 -339
-104 -530 -135 -213 -36 -259 -39 -555 -39 -296 0 -342 3 -555 39 -577 95
-1113 345 -1575 733 -125 104 -344 330 -449 462 -154 193 -288 407 -392 626
-77 162 -72 152 -112 259 -100 266 -159 511 -194 805 l-8 65 -2266 3 -2267 2
-6 -42 c-12 -90 -18 -1306 -7 -1558 27 -638 82 -1226 132 -1424 53 -207 118
-270 329 -315 l94 -21 5426 0 5425 0 150 31 c617 125 965 290 1019 482 34 119
77 766 96 1427 6 184 15 470 20 635 5 165 10 411 10 548 l0 247 -789 0 -789 0
-11 -67z"/>
</g>
</svg>
