<svg width="75" height="59" viewBox="0 0 75 59" fill="none" xmlns="http://www.w3.org/2000/svg">
<rect width="75" height="59" fill="white"/>
<path d="M35.1875 37C35.4982 37 35.75 36.7482 35.75 36.4375C35.75 36.1268 35.4982 35.875 35.1875 35.875C34.8768 35.875 34.625 36.1268 34.625 36.4375C34.625 36.7482 34.8768 37 35.1875 37Z" fill="#9098B1" stroke="#9098B1" stroke-width="2" stroke-miterlimit="10" stroke-linecap="round" stroke-linejoin="round"/>
<path d="M43.0625 37C43.3732 37 43.625 36.7482 43.625 36.4375C43.625 36.1268 43.3732 35.875 43.0625 35.875C42.7518 35.875 42.5 36.1268 42.5 36.4375C42.5 36.7482 42.7518 37 43.0625 37Z" fill="#9098B1" stroke="#9098B1" stroke-width="2" stroke-miterlimit="10" stroke-linecap="round" stroke-linejoin="round"/>
<path d="M29 19H31.25L33.5 32.5H44.75L47 22.375H32.375" stroke="#9098B1" stroke-width="2" stroke-linecap="round" stroke-linejoin="round"/>
<path d="M26.2523 51.51C26.2523 53.6 27.7823 55.06 29.7323 55.06C31.2423 55.06 32.4423 54.31 32.9623 52.97H31.8723C31.4923 53.8 30.7523 54.27 29.7323 54.27C28.2723 54.27 27.1823 53.21 27.1823 51.51C27.1823 49.8 28.2723 48.74 29.7323 48.74C30.7523 48.74 31.4923 49.21 31.8723 50.05H32.9623C32.4423 48.7 31.2423 47.94 29.7323 47.94C27.7823 47.94 26.2523 49.42 26.2523 51.51ZM34.4769 52.24C34.4769 53.94 35.6069 55.09 37.0669 55.09C38.0769 55.09 38.7869 54.57 39.1169 53.98V55H40.0369V49.52H39.1169V50.52C38.7969 49.95 38.0969 49.43 37.0769 49.43C35.6069 49.43 34.4769 50.53 34.4769 52.24ZM39.1169 52.25C39.1169 53.54 38.2569 54.29 37.2569 54.29C36.2569 54.29 35.4069 53.53 35.4069 52.24C35.4069 50.95 36.2569 50.22 37.2569 50.22C38.2569 50.22 39.1169 50.98 39.1169 52.25ZM42.9847 52.02C42.9847 50.75 43.6447 50.36 44.5147 50.36H44.7547V49.42C43.8847 49.42 43.2947 49.8 42.9847 50.41V49.52H42.0747V55H42.9847V52.02ZM46.5052 53.5C46.5052 54.6 47.0552 55 48.0252 55H48.8452V54.23H48.1752C47.6152 54.23 47.4152 54.04 47.4152 53.5V50.27H48.8452V49.52H47.4152V48.14H46.5052V49.52H45.7952V50.27H46.5052V53.5Z" fill="#9098B1"/>
</svg>
