<svg width="75" height="59" viewBox="0 0 75 59" fill="none" xmlns="http://www.w3.org/2000/svg">
<rect width="75" height="59" fill="white"/>
<path d="M36.875 34.75C41.2242 34.75 44.75 31.2242 44.75 26.875C44.75 22.5258 41.2242 19 36.875 19C32.5258 19 29 22.5258 29 26.875C29 31.2242 32.5258 34.75 36.875 34.75Z" stroke="#9098B1" stroke-width="2" stroke-miterlimit="10"/>
<path d="M42.5 32.5L47 37" stroke="#9098B1" stroke-width="2" stroke-miterlimit="10" stroke-linecap="round"/>
<path d="M22.7905 48.02H19.0405V55H22.7905V54.25H19.9505V51.85H22.4905V51.1H19.9505V48.77H22.7905V48.02ZM27.5275 55H28.5575L26.7875 52.23L28.5475 49.52H27.5975L26.3575 51.55L25.0575 49.52H24.0275L25.7975 52.28L24.0275 55H24.9775L26.2275 52.96L27.5275 55ZM30.8626 50.53V49.52H29.9526V57.6H30.8626V53.99C31.2026 54.55 31.9126 55.09 32.9126 55.09C34.3826 55.09 35.5126 53.94 35.5126 52.24C35.5126 50.53 34.3826 49.43 32.9126 49.43C31.9126 49.43 31.1926 49.95 30.8626 50.53ZM34.5826 52.24C34.5826 53.53 33.7326 54.29 32.7226 54.29C31.7326 54.29 30.8626 53.54 30.8626 52.25C30.8626 50.98 31.7326 50.22 32.7226 50.22C33.7326 50.22 34.5826 50.95 34.5826 52.24ZM37.2104 55H38.1204V47.6H37.2104V55ZM45.3714 52.25C45.3714 50.52 44.1614 49.43 42.6014 49.43C41.0514 49.43 39.8314 50.52 39.8314 52.25C39.8314 53.99 41.0114 55.09 42.5614 55.09C44.1214 55.09 45.3714 53.99 45.3714 52.25ZM40.7614 52.25C40.7614 50.87 41.6314 50.22 42.5914 50.22C43.5314 50.22 44.4414 50.87 44.4414 52.25C44.4414 53.64 43.5114 54.29 42.5614 54.29C41.6114 54.29 40.7614 53.64 40.7614 52.25ZM47.9779 52.02C47.9779 50.75 48.6379 50.36 49.5079 50.36H49.7479V49.42C48.8779 49.42 48.2879 49.8 47.9779 50.41V49.52H47.0679V55H47.9779V52.02ZM53.6283 50.2C54.5683 50.2 55.3683 50.79 55.3583 51.86H51.8983C51.9983 50.79 52.7383 50.2 53.6283 50.2ZM56.1883 53.31H55.2083C55.0083 53.9 54.4883 54.32 53.6683 54.32C52.7383 54.32 51.9583 53.71 51.8883 52.6H56.2683C56.2883 52.41 56.2983 52.25 56.2983 52.05C56.2983 50.55 55.2583 49.43 53.6683 49.43C52.0683 49.43 50.9583 50.52 50.9583 52.25C50.9583 53.99 52.1083 55.09 53.6683 55.09C55.0283 55.09 55.9083 54.31 56.1883 53.31Z" fill="#9098B1"/>
</svg>
