<svg width="75" height="59" viewBox="0 0 75 59" fill="none" xmlns="http://www.w3.org/2000/svg">
<rect width="75" height="59" fill="white"/>
<path d="M29 25.75L38 19L47 25.75" stroke="#40BFFF" stroke-width="2" stroke-miterlimit="10" stroke-linecap="round" stroke-linejoin="round"/>
<path d="M47 25.75V37H29V25.75" stroke="#40BFFF" stroke-width="2" stroke-miterlimit="10" stroke-linecap="round" stroke-linejoin="round"/>
<path d="M40.25 30.25H35.75V37H40.25V30.25Z" stroke="#40BFFF" stroke-width="2" stroke-miterlimit="10" stroke-linecap="round" stroke-linejoin="round"/>
<path d="M26.5252 55H28.2352V47.98H26.5252V50.73H23.8652V47.98H22.1552V55H23.8652V52.11H26.5252V55ZM35.4296 52.21C35.4296 50.44 34.1696 49.34 32.5296 49.34C30.8996 49.34 29.6296 50.44 29.6296 52.21C29.6296 53.98 30.8696 55.08 32.5096 55.08C34.1496 55.08 35.4296 53.98 35.4296 52.21ZM31.3696 52.21C31.3696 51.26 31.9096 50.82 32.5296 50.82C33.1296 50.82 33.6896 51.26 33.6896 52.21C33.6896 53.15 33.1196 53.6 32.5096 53.6C31.8896 53.6 31.3696 53.15 31.3696 52.21ZM44.5268 55H46.2268V51.74C46.2268 50.24 45.3368 49.36 43.9568 49.36C43.1468 49.36 42.4468 49.81 42.0768 50.4C41.6968 49.73 41.0168 49.36 40.1768 49.36C39.4468 49.36 38.8768 49.67 38.5468 50.12V49.42H36.8368V55H38.5468V51.97C38.5468 51.24 38.9668 50.84 39.6168 50.84C40.2668 50.84 40.6868 51.24 40.6868 51.97V55H42.3868V51.97C42.3868 51.24 42.8068 50.84 43.4568 50.84C44.1068 50.84 44.5268 51.24 44.5268 51.97V55ZM50.3827 50.71C50.9527 50.71 51.4327 51.06 51.4327 51.67H49.2927C49.3927 51.05 49.8227 50.71 50.3827 50.71ZM53.0527 53.15H51.2327C51.0927 53.45 50.8227 53.69 50.3427 53.69C49.7927 53.69 49.3427 53.35 49.2827 52.62H53.1527C53.1727 52.45 53.1827 52.28 53.1827 52.12C53.1827 50.42 52.0327 49.34 50.4027 49.34C48.7427 49.34 47.5827 50.44 47.5827 52.21C47.5827 53.98 48.7627 55.08 50.4027 55.08C51.7927 55.08 52.7827 54.24 53.0527 53.15Z" fill="#40BFFF"/>
</svg>
