<svg width="75" height="59" viewBox="0 0 75 59" fill="none" xmlns="http://www.w3.org/2000/svg">
<rect width="75" height="59" fill="white"/>
<path d="M34.0625 24.625C34.3732 24.625 34.625 24.3732 34.625 24.0625C34.625 23.7518 34.3732 23.5 34.0625 23.5C33.7518 23.5 33.5 23.7518 33.5 24.0625C33.5 24.3732 33.7518 24.625 34.0625 24.625Z" fill="#9098B1" stroke="#9098B1" stroke-width="2" stroke-miterlimit="10" stroke-linecap="round" stroke-linejoin="round"/>
<path d="M47 29.0001L39.0001 37L29 26.9999V19H36.9999L47 29.0001Z" stroke="#9098B1" stroke-width="2" stroke-linecap="round" stroke-linejoin="round"/>
<path d="M31.7425 51.51C31.7425 49.42 30.2125 47.95 28.2425 47.95C26.2825 47.95 24.7425 49.42 24.7425 51.51C24.7425 53.6 26.2825 55.07 28.2425 55.07C30.2125 55.07 31.7425 53.6 31.7425 51.51ZM25.6725 51.51C25.6725 49.8 26.7725 48.74 28.2425 48.74C29.7125 48.74 30.8125 49.8 30.8125 51.51C30.8125 53.21 29.7125 54.28 28.2425 54.28C26.7725 54.28 25.6725 53.21 25.6725 51.51ZM33.6138 55H34.5238V50.27H35.6738V49.52H34.5238V49.13C34.5238 48.42 34.7938 48.12 35.6138 48.12V47.36C34.2138 47.36 33.6138 47.91 33.6138 49.13V49.52H32.9038V50.27H33.6138V55ZM37.4048 55H38.3148V50.27H39.4648V49.52H38.3148V49.13C38.3148 48.42 38.5848 48.12 39.4048 48.12V47.36C38.0048 47.36 37.4048 47.91 37.4048 49.13V49.52H36.6948V50.27H37.4048V55ZM43.3559 50.2C44.2959 50.2 45.0959 50.79 45.0859 51.86H41.6259C41.7259 50.79 42.4659 50.2 43.3559 50.2ZM45.9159 53.31H44.9359C44.7359 53.9 44.2159 54.32 43.3959 54.32C42.4659 54.32 41.6859 53.71 41.6159 52.6H45.9959C46.0159 52.41 46.0259 52.25 46.0259 52.05C46.0259 50.55 44.9859 49.43 43.3959 49.43C41.7959 49.43 40.6859 50.52 40.6859 52.25C40.6859 53.99 41.8359 55.09 43.3959 55.09C44.7559 55.09 45.6359 54.31 45.9159 53.31ZM48.637 52.02C48.637 50.75 49.297 50.36 50.167 50.36H50.407V49.42C49.537 49.42 48.947 49.8 48.637 50.41V49.52H47.727V55H48.637V52.02Z" fill="#9098B1"/>
</svg>
