<svg width="75" height="59" viewBox="0 0 75 59" fill="none" xmlns="http://www.w3.org/2000/svg">
<rect width="75" height="59" fill="white"/>
<path fill-rule="evenodd" clip-rule="evenodd" d="M38 20.0005C36.3971 20.0005 35.0977 21.2999 35.0977 22.9029C35.0977 24.5058 36.3971 25.8053 38 25.8053C39.603 25.8053 40.9024 24.5058 40.9024 22.9029C40.9024 21.2999 39.603 20.0005 38 20.0005ZM33.0977 22.9029C33.0977 20.1954 35.2925 18.0005 38 18.0005C40.7075 18.0005 42.9024 20.1954 42.9024 22.9029C42.9024 25.6104 40.7075 27.8053 38 27.8053C35.2925 27.8053 33.0977 25.6104 33.0977 22.9029Z" fill="#9098B1"/>
<path fill-rule="evenodd" clip-rule="evenodd" d="M35.5178 31.3904C32.4704 31.3904 30 33.8607 30 36.9082V36.9993C30 37.5516 29.5523 37.9993 29 37.9993C28.4477 37.9993 28 37.5516 28 36.9993V36.9082C28 32.7562 31.3658 29.3904 35.5178 29.3904H40.4822C44.6342 29.3904 48 32.7562 48 36.9082V36.9993C48 37.5516 47.5523 37.9993 47 37.9993C46.4477 37.9993 46 37.5516 46 36.9993V36.9082C46 33.8607 43.5296 31.3904 40.4822 31.3904H35.5178Z" fill="#9098B1"/>
<path d="M20.5906 55H21.5506L19.0406 48.07H17.9906L15.4706 55H16.4306L16.9906 53.45H20.0306L20.5906 55ZM19.7706 52.71H17.2506L18.5106 49.19L19.7706 52.71ZM22.8089 52.25C22.8089 53.99 23.9189 55.09 25.4789 55.09C26.8389 55.09 27.7289 54.33 28.0089 53.24H27.0289C26.8289 53.93 26.2889 54.32 25.4789 54.32C24.4789 54.32 23.7389 53.61 23.7389 52.25C23.7389 50.91 24.4789 50.2 25.4789 50.2C26.2889 50.2 26.8389 50.62 27.0289 51.28H28.0089C27.7289 50.13 26.8389 49.43 25.4789 49.43C23.9189 49.43 22.8089 50.53 22.8089 52.25ZM29.3831 52.25C29.3831 53.99 30.4931 55.09 32.0531 55.09C33.4131 55.09 34.3031 54.33 34.5831 53.24H33.6031C33.4031 53.93 32.8631 54.32 32.0531 54.32C31.0531 54.32 30.3131 53.61 30.3131 52.25C30.3131 50.91 31.0531 50.2 32.0531 50.2C32.8631 50.2 33.4131 50.62 33.6031 51.28H34.5831C34.3031 50.13 33.4131 49.43 32.0531 49.43C30.4931 49.43 29.3831 50.53 29.3831 52.25ZM41.4973 52.25C41.4973 50.52 40.2873 49.43 38.7273 49.43C37.1773 49.43 35.9573 50.52 35.9573 52.25C35.9573 53.99 37.1373 55.09 38.6873 55.09C40.2473 55.09 41.4973 53.99 41.4973 52.25ZM36.8873 52.25C36.8873 50.87 37.7573 50.22 38.7173 50.22C39.6573 50.22 40.5673 50.87 40.5673 52.25C40.5673 53.64 39.6373 54.29 38.6873 54.29C37.7373 54.29 36.8873 53.64 36.8873 52.25ZM48.0538 49.52H47.1438V52.53C47.1438 53.71 46.5138 54.29 45.5738 54.29C44.6538 54.29 44.0438 53.72 44.0438 52.61V49.52H43.1438V52.73C43.1438 54.3 44.1338 55.08 45.3938 55.08C46.1238 55.08 46.7938 54.76 47.1438 54.19V55H48.0538V49.52ZM54.1003 55H55.0003V51.77C55.0003 50.2 54.0303 49.42 52.7603 49.42C52.0203 49.42 51.3603 49.73 51.0003 50.3V49.52H50.0903V55H51.0003V51.97C51.0003 50.79 51.6403 50.21 52.5703 50.21C53.4903 50.21 54.1003 50.78 54.1003 51.9V55ZM57.1868 53.5C57.1868 54.6 57.7368 55 58.7068 55H59.5268V54.23H58.8568C58.2968 54.23 58.0968 54.04 58.0968 53.5V50.27H59.5268V49.52H58.0968V48.14H57.1868V49.52H56.4768V50.27H57.1868V53.5Z" fill="#9098B1"/>
</svg>
